# xmcd CD database file
#
# Track frame offsets:
#	150
#	20869
#	41974
#	73294
#	100842
#	110651
#
# Disc length: 1819 seconds
#
# Revision: 0
# Processed by: cddbd v1.4PL0 Copyright (c) Steve Scherf et al.
# Submitted via: CDex 1.50beta9
#
DISCID=5a071906
DTITLE=PLANETARIUM - PLANETARIUMII
DYEAR=2001
DGENRE=New Age
TTITLE0=Lunatic Dancer 
TTITLE1=Trouble Maker 
TTITLE2=Deserted City
TTITLE3=Precious Love
TTITLE4=Love Affair 
TTITLE5=Farewell
EXTD=YEAR: 2001
EXTT0=
EXTT1=
EXTT2=
EXTT3=
EXTT4=
EXTT5=
PLAYORDER=
